# xmcd
#
# Track frame offsets:
#	150
#	27038
#	41027
#	57011
#	83252
#	95103
#	114244
#	123544
#	142051
#	147744
#	164760
#	183716
#	200772
#	217680
#	239706
#	263713
#
# Disc length: 3623 seconds
#
# Revision: 3
# Processed by: cddbd v1.5.2PL0 Copyright (c) Steve Scherf et al.
# Submitted via: audiograbber 1.83.01
#
DISCID=f10e2510
DTITLE=The Revolutionaires - The Joker Royale    2013
DYEAR=2013
DGENRE=R&B
TTITLE0=Seven Nights To Rock
TTITLE1=Look'n Good
TTITLE2=Sally Zu-Zass
TTITLE3=Fool #1
TTITLE4=Hallelujah I Love Her So
TTITLE5=Hound Dog
TTITLE6=Burnt Toast And Black Coffee
TTITLE7=Chicago Flyer
TTITLE8=The Joker Royale
TTITLE9=Miss You So
TTITLE10=Nothing Can Change This Love
TTITLE11=Americano
TTITLE12=Rock Awhile
TTITLE13=Boom Boom
TTITLE14=Hole Hearted
TTITLE15=Over The Rainbow
EXTD=
EXTT0=
EXTT1=
EXTT2=
EXTT3=
EXTT4=
EXTT5=
EXTT6=
EXTT7=
EXTT8=
EXTT9=
EXTT10=
EXTT11=
EXTT12=
EXTT13=
EXTT14=
EXTT15=
PLAYORDER=
